<svg version="1.0" xmlns="http://www.w3.org/2000/svg"
 width="1024.000000pt" height="1024.000000pt" viewBox="0 0 1024.000000 1024.000000"
 preserveAspectRatio="xMidYMid meet">

<g transform="translate(0.000000,1024.000000) scale(0.100000,-0.100000)"
fill="#000000" stroke="none">
<path d="M0 5120 l0 -5120 5120 0 5120 0 0 5120 0 5120 -5120 0 -5120 0 0
-5120z m3214 2425 c29 -29 27 -55 -15 -207 -46 -165 -71 -208 -123 -208 -34 0
-66 36 -66 76 0 51 88 316 112 337 25 21 71 22 92 2z m-809 -119 c51 -30 85
-80 92 -137 4 -25 12 -43 22 -46 78 -24 164 -79 222 -140 103 -109 154 -234
165 -403 8 -135 19 -163 91 -241 64 -70 75 -98 53 -139 -5 -10 -23 -23 -40
-28 -24 -9 -52 -4 -165 28 -235 68 -284 75 -530 74 -250 0 -347 -15 -523 -81
-128 -47 -182 -53 -212 -21 -32 34 -22 86 27 144 83 99 84 102 93 236 12 180
44 275 132 394 55 74 116 125 190 159 50 23 57 30 63 62 27 146 188 216 320
139z m1175 -126 c12 -12 20 -33 20 -51 0 -28 -17 -49 -127 -155 -71 -67 -143
-131 -160 -141 -32 -17 -33 -17 -60 3 -20 15 -29 31 -31 57 -3 33 4 42 118
153 66 65 133 126 148 136 35 23 67 23 92 -2z m1174 -955 c181 -48 302 -184
329 -371 29 -199 -59 -391 -214 -469 -95 -49 -135 -57 -316 -62 l-173 -6 0
-233 0 -234 -74 0 c-67 0 -75 2 -81 21 -10 29 -64 59 -107 59 l-38 0 0 655 0
654 113 4 c215 8 498 -1 561 -18z m2504 -433 c95 -251 213 -563 262 -692 49
-129 90 -238 90 -242 0 -5 -73 -8 -163 -8 l-162 0 -50 148 -50 147 -260 0
-260 0 -50 -145 -51 -145 -162 -3 -162 -2 21 52 c22 53 280 736 425 1122 59
155 84 210 99 217 11 4 83 8 160 8 l140 1 173 -458z m-1678 -117 l0 -565 280
0 280 0 0 -130 0 -130 -430 0 -430 0 0 695 0 695 150 0 150 0 0 -565z m2970
529 c121 -57 180 -133 199 -255 25 -154 -41 -291 -166 -347 -42 -18 -47 -32
-13 -32 36 0 141 -63 180 -107 80 -91 103 -259 52 -376 -30 -67 -101 -139
-175 -175 -109 -54 -180 -62 -524 -62 l-308 0 0 696 0 695 345 -3 345 -3 65
-31z m-5955 -124 c428 -90 744 -319 924 -670 143 -278 167 -558 75 -878 -33
-116 -122 -294 -181 -361 l-47 -54 57 6 c130 13 248 105 315 244 34 72 37 86
40 183 1 58 5 115 8 128 14 67 95 84 145 31 16 -17 33 -45 38 -63 9 -29 9 -28
10 19 2 98 39 179 87 191 33 9 78 -12 95 -43 17 -31 16 -144 0 -187 -20 -51
-5 -39 23 19 41 82 85 125 130 125 46 0 76 -29 76 -72 0 -33 -34 -112 -67
-157 l-18 -25 46 27 c52 31 94 34 121 10 26 -24 22 -63 -13 -116 -37 -57 -96
-101 -214 -160 -84 -42 -93 -50 -139 -116 -204 -299 -577 -417 -978 -310 l-77
21 -68 -39 c-38 -21 -92 -49 -120 -62 -61 -28 -61 -25 -38 -174 18 -118 51
-194 107 -242 79 -67 96 -119 57 -169 -48 -61 -34 -60 -614 -64 -583 -4 -596
-3 -652 53 -52 52 -45 82 43 177 68 74 104 187 104 328 0 44 -2 47 -37 59 -21
7 -71 29 -112 47 -83 38 -98 37 -194 -14 -65 -35 -113 -112 -69 -112 9 0 34
-11 55 -25 103 -70 105 -242 5 -319 -47 -35 -115 -50 -166 -37 -68 19 -132 86
-132 139 0 11 -11 27 -24 35 -13 9 -37 42 -53 74 -24 50 -28 69 -28 143 1 64
7 99 24 143 28 71 115 168 188 209 l54 30 -68 62 c-89 81 -176 200 -229 311
-127 270 -132 547 -15 847 175 448 545 744 1026 823 124 20 366 13 500 -15z
m4151 -1491 c99 -18 200 -73 275 -149 115 -117 165 -256 156 -435 -13 -241
-145 -421 -365 -497 -58 -20 -86 -23 -202 -22 -122 0 -142 3 -203 27 -168 66
-287 199 -332 374 -20 77 -20 244 1 314 58 195 214 342 407 384 77 17 184 18
263 4z m-1420 -381 l249 -373 3 373 2 372 100 0 100 0 0 -547 0 -548 -100 3
-100 3 -246 372 c-135 205 -250 376 -255 382 -6 6 -9 -137 -9 -375 1 -212 -2
-384 -5 -382 -3 1 -48 2 -100 2 l-95 0 0 545 0 545 103 0 103 0 250 -372z
m2824 287 l0 -85 -165 0 -165 0 0 -460 0 -460 -100 0 -100 0 0 460 0 460 -165
0 -165 0 0 85 0 85 430 0 430 0 0 -85z m448 -461 l-3 -546 -98 -1 -97 -2 0
548 0 547 100 0 100 0 -2 -546z m-6038 -987 c0 -41 -56 -106 -113 -133 -64
-29 -127 -31 -187 -3 -56 25 -77 44 -101 91 -36 70 -43 68 191 68 l210 0 0
-23z"/>
<path d="M4380 5900 l0 -202 128 4 c107 3 135 7 174 27 69 33 93 77 93 171 0
92 -21 134 -86 170 -39 22 -58 25 -176 28 l-133 4 0 -202z"/>
<path d="M6927 6032 c-6 -21 -163 -472 -171 -492 -5 -13 17 -15 169 -15 110 0
175 4 175 10 0 28 -168 512 -173 497z"/>
<path d="M8100 5955 l0 -155 123 0 c110 0 129 3 167 23 52 27 80 75 80 137 0
60 -27 111 -70 132 -28 14 -61 18 -167 18 l-133 0 0 -155z"/>
<path d="M8100 5398 l0 -168 133 0 c154 0 196 9 245 55 34 31 36 37 40 101 2
56 -1 75 -17 101 -39 61 -58 67 -238 73 l-163 5 0 -167z"/>
<path d="M2742 5604 c-13 -9 -22 -26 -22 -41 0 -23 3 -25 28 -18 80 20 88 18
131 -20 43 -39 71 -41 71 -5 0 12 -12 33 -27 47 -55 51 -137 68 -181 37z"/>
<path d="M1790 5590 c-60 -32 -104 -75 -97 -93 12 -31 37 -31 70 0 58 56 103
67 146 37 21 -15 24 -15 38 -1 22 21 10 45 -32 62 -46 20 -82 18 -125 -5z"/>
<path d="M1853 5309 c-122 -36 -163 -219 -76 -337 31 -41 72 -62 123 -62 96 0
161 68 168 175 6 96 -28 179 -87 209 -38 20 -91 26 -128 15z m147 -88 c19 -36
12 -79 -16 -97 -24 -16 -27 -16 -52 3 -30 22 -39 61 -22 93 15 27 75 28 90 1z"/>
<path d="M2720 5308 c-126 -35 -171 -217 -83 -336 32 -43 72 -62 131 -62 98 0
164 81 165 205 1 95 -42 163 -120 191 -44 15 -47 15 -93 2z m134 -87 c25 -28
18 -82 -13 -98 -25 -12 -57 -3 -73 21 -12 17 -9 71 4 84 18 18 63 14 82 -7z"/>
<path d="M2103 4873 c-38 -57 -12 -190 55 -278 78 -103 177 -139 277 -101 114
44 202 234 163 351 -17 51 -33 53 -134 19 -95 -32 -158 -29 -251 10 -78 32
-88 32 -110 -1z m338 -212 c60 -61 18 -131 -79 -131 -32 0 -125 91 -120 117 5
27 46 43 111 43 51 0 62 -4 88 -29z"/>
<path d="M6534 4531 c-96 -25 -187 -100 -225 -185 -10 -24 -24 -77 -30 -119
-41 -274 144 -477 399 -437 104 17 183 68 235 151 56 91 64 295 15 400 -57
124 -152 188 -287 195 -42 2 -90 0 -107 -5z"/>
</g>
</svg>